<?xml version="1.0" standalone="no"?><!DOCTYPE svg PUBLIC "-//W3C//DTD SVG 1.1//EN" "http://www.w3.org/Graphics/SVG/1.1/DTD/svg11.dtd"><svg t="1622536080588" class="icon" viewBox="0 0 1024 1024" version="1.1" xmlns="http://www.w3.org/2000/svg" p-id="6116" width="200" height="200" xmlns:xlink="http://www.w3.org/1999/xlink"><defs><style type="text/css"></style></defs><path d="M915 440.2h-23.3C884.7 238 718.1 75.6 514.2 75.6c-199.4 0-363.1 155.2-376.8 351.2H109c-7.3 0-13.3 5.9-13.3 13.3v190c0 7.3 5.9 13.3 13.3 13.3h87.6c7.3 0 13.3-5.9 13.3-13.3v-190c0-7.3-5.9-13.3-13.3-13.3h-32.7c13.7-181.3 165.5-324.7 350.2-324.7 189.3 0 344 150.5 351 338.1h-37.8c-7.3 0-13.3 5.9-13.3 13.3v190c0 7.3 5.9 13.3 13.3 13.3h25.2c-40.8 147.5-128.1 217.4-259.9 207.6-3.7-23.8-24.2-42.1-49.1-42.1-27.4 0-49.7 22.3-49.7 49.7 0 27.4 22.3 49.7 49.7 49.7 20.8 0 38.6-12.8 46-31 9.2 0.7 18.3 1.2 27.2 1.2 81.2 0 146.6-29.9 195-89.2 43.8-53.8 60.6-116.9 67.8-143.8 0.2-0.7 0.4-1.4 0.5-2h35c7.3 0 13.3-5.9 13.3-13.3v-190c-0.1-7.5-6-13.4-13.3-13.4z m-731.6 13.1v163.5h-61.1V453.3h14v0.2h26.5v-0.2h20.6z m360.2 435.2c-9.1 0-16.6-7.4-16.6-16.6 0-9.1 7.4-16.6 16.6-16.6s16.6 7.4 16.6 16.6c-0.1 9.1-7.5 16.6-16.6 16.6z m358.1-258.3h-31.4H840.6V466.7h61.1v163.5z" fill="#346899" p-id="6117"></path><path d="M549 720.2c67.9-14.2 120.7-52.7 143.2-69.1 3.5-2.5 7.4-5.4 8.5-6 6.5-3.4 9-11.4 5.6-17.9-3.4-6.5-11.4-9-17.9-5.6-2.7 1.4-6.1 3.9-11.8 8.1-129.3 94.2-245 92.1-343.9-6.3-5.2-5.2-13.6-5.1-18.7 0-5.2 5.2-5.1 13.6 0 18.7 55.8 55.5 117.3 83.5 183.4 83.5 16.9 0.1 34.1-1.8 51.6-5.4z" fill="#346899" p-id="6118"></path><path d="M743.4 588.1m-19.9 0a19.9 19.9 0 1 0 39.8 0 19.9 19.9 0 1 0-39.8 0Z" fill="#346899" p-id="6119"></path></svg>